<svg width="25" height="25" viewBox="0 0 25 25" fill="none" xmlns="http://www.w3.org/2000/svg">
<g opacity="0.4">
<path d="M6.815 15.4746V9.47461C6.815 7.88331 7.44714 6.35719 8.57236 5.23197C9.69758 4.10675 11.2237 3.47461 12.815 3.47461C14.4063 3.47461 15.9324 4.10675 17.0576 5.23197C18.1829 6.35719 18.815 7.88331 18.815 9.47461V17.4746C18.815 18.5355 18.3936 19.5529 17.6434 20.303C16.8933 21.0532 15.8759 21.4746 14.815 21.4746C13.7541 21.4746 12.7367 21.0532 11.9866 20.303C11.2364 19.5529 10.815 18.5355 10.815 17.4746V9.47461C10.815 8.94418 11.0257 8.43547 11.4008 8.0604C11.7759 7.68532 12.2846 7.47461 12.815 7.47461C13.3454 7.47461 13.8541 7.68532 14.2292 8.0604C14.6043 8.43547 14.815 8.94418 14.815 9.47461V17.4746" stroke="white" stroke-width="2" stroke-linecap="round" stroke-linejoin="round"/>
</g>
</svg>
