<svg width="30" height="31" viewBox="0 0 30 31" fill="none" xmlns="http://www.w3.org/2000/svg">
<path d="M26.6667 0.974609C27.5507 0.974609 28.3986 1.3258 29.0237 1.95092C29.6488 2.57604 30 3.42389 30 4.30794V27.6413C30 28.5253 29.6488 29.3732 29.0237 29.9983C28.3986 30.6234 27.5507 30.9746 26.6667 30.9746H3.33333C2.44928 30.9746 1.60143 30.6234 0.976311 29.9983C0.351189 29.3732 0 28.5253 0 27.6413V4.30794C0 3.42389 0.351189 2.57604 0.976311 1.95092C1.60143 1.3258 2.44928 0.974609 3.33333 0.974609H26.6667ZM25.8333 26.8079V17.9746C25.8333 16.5336 25.2609 15.1516 24.2419 14.1327C23.223 13.1137 21.841 12.5413 20.4 12.5413C18.9833 12.5413 17.3333 13.4079 16.5333 14.7079V12.8579H11.8833V26.8079H16.5333V18.5913C16.5333 17.3079 17.5667 16.2579 18.85 16.2579C19.4688 16.2579 20.0623 16.5038 20.4999 16.9414C20.9375 17.3789 21.1833 17.9724 21.1833 18.5913V26.8079H25.8333ZM6.46667 10.2413C7.20927 10.2413 7.92146 9.94628 8.44657 9.42118C8.97167 8.89607 9.26667 8.18388 9.26667 7.44128C9.26667 5.89128 8.01667 4.62461 6.46667 4.62461C5.71964 4.62461 5.00321 4.92136 4.47498 5.44959C3.94675 5.97782 3.65 6.69425 3.65 7.44128C3.65 8.99128 4.91667 10.2413 6.46667 10.2413ZM8.78333 26.8079V12.8579H4.16667V26.8079H8.78333Z" fill="white"/>
</svg>
