<svg width="25" height="25" viewBox="0 0 25 25" fill="none" xmlns="http://www.w3.org/2000/svg">
<path d="M12.815 13.9746C14.4719 13.9746 15.815 12.6315 15.815 10.9746C15.815 9.31776 14.4719 7.97461 12.815 7.97461C11.1581 7.97461 9.815 9.31776 9.815 10.9746C9.815 12.6315 11.1581 13.9746 12.815 13.9746Z" stroke="white" stroke-width="2" stroke-linecap="round" stroke-linejoin="round"/>
<path d="M12.815 2.97461C10.6933 2.97461 8.65844 3.81746 7.15815 5.31776C5.65786 6.81805 4.815 8.85288 4.815 10.9746C4.815 12.8666 5.217 14.1046 6.315 15.4746L12.815 22.9746L19.315 15.4746C20.413 14.1046 20.815 12.8666 20.815 10.9746C20.815 8.85288 19.9721 6.81805 18.4719 5.31776C16.9716 3.81746 14.9367 2.97461 12.815 2.97461Z" stroke="white" stroke-width="2" stroke-linecap="round" stroke-linejoin="round"/>
</svg>
