<svg width="25" height="25" viewBox="0 0 25 25" fill="none" xmlns="http://www.w3.org/2000/svg">
<g opacity="0.4">
<path fill-rule="evenodd" clip-rule="evenodd" d="M22.655 7.03103C22.6986 6.76635 22.6705 6.49481 22.5735 6.24471C22.4765 5.99461 22.3142 5.77509 22.1035 5.60904C21.8928 5.44299 21.6414 5.33647 21.3756 5.30059C21.1098 5.26471 20.8392 5.30077 20.592 5.40503L3.492 12.605C2.3 13.107 2.239 14.831 3.492 15.351C4.73288 15.868 5.99167 16.341 7.266 16.769C8.434 17.155 9.708 17.512 10.729 17.613C11.008 17.947 11.359 18.269 11.717 18.563C12.264 19.013 12.922 19.476 13.602 19.92C14.964 20.81 16.475 21.661 17.493 22.215C18.71 22.875 20.167 22.115 20.385 20.788L22.655 7.03103ZM5.409 13.968L20.533 7.60003L18.415 20.44C17.416 19.897 15.977 19.084 14.695 18.246C14.1042 17.8666 13.5337 17.4564 12.986 17.017C12.8396 16.8974 12.6975 16.7727 12.56 16.643L16.521 12.683C16.7086 12.4955 16.8141 12.2412 16.8142 11.9759C16.8143 11.7106 16.709 11.4562 16.5215 11.2685C16.334 11.0809 16.0796 10.9754 15.8144 10.9753C15.5491 10.9752 15.2946 11.0805 15.107 11.268L10.77 15.605C10.036 15.511 9.014 15.239 7.892 14.869C7.05671 14.5907 6.22908 14.2899 5.41 13.967L5.409 13.968Z" fill="white"/>
</g>
</svg>
